<?xml version="1.0" standalone="no"?>
<!DOCTYPE svg PUBLIC "-//W3C//DTD SVG 20010904//EN"
 "http://www.w3.org/TR/2001/REC-SVG-20010904/DTD/svg10.dtd">
<svg version="1.0" xmlns="http://www.w3.org/2000/svg"
 width="2316.000000pt" height="581.000000pt" viewBox="0 0 2316.000000 581.000000"
 preserveAspectRatio="xMidYMid meet">
<metadata>
Created by potrace 1.15, written by Peter Selinger 2001-2017
</metadata>
<g transform="translate(0.000000,581.000000) scale(0.100000,-0.100000)"
fill="#000000" stroke="none">
<path d="M110 3781 l0 -1929 1235 -881 c680 -485 1240 -882 1245 -884 5 -1
547 396 1205 883 l1195 884 0 1928 0 1928 -2440 0 -2440 0 0 -1929z m4210
-160 l0 -1418 -857 -635 c-472 -349 -863 -638 -869 -641 -6 -4 -413 280 -905
631 l-894 638 -3 1422 -2 1422 1765 0 1765 0 0 -1419z"/>
<path d="M1480 3568 l0 -843 539 -380 c296 -209 544 -380 550 -380 7 0 245
171 531 380 l519 380 1 843 0 842 -1070 0 -1070 0 0 -842z m1800 -81 l0 -582
-352 -259 c-194 -142 -357 -258 -363 -258 -5 0 -175 117 -377 259 l-367 258
-1 583 0 582 730 0 730 0 0 -583z"/>
<path d="M13248 4079 c-363 -53 -628 -300 -705 -659 -15 -73 -18 -134 -18
-435 0 -379 5 -424 59 -569 95 -251 323 -446 594 -507 143 -32 395 -29 568 6
160 33 333 121 449 229 l65 61 0 428 0 427 -440 0 -440 0 0 -165 0 -165 185 0
185 0 0 -189 c0 -187 0 -189 -24 -204 -59 -39 -127 -52 -276 -52 l-145 0 -63
34 c-97 53 -166 151 -197 283 -21 91 -21 675 0 766 33 140 113 249 220 299 52
24 72 28 150 27 196 -1 297 -82 320 -256 l6 -48 235 0 234 0 0 73 c0 90 -21
181 -62 266 -44 94 -167 214 -268 263 -163 80 -431 117 -632 87z"/>
<path d="M20195 4083 c-196 -24 -346 -93 -473 -216 -107 -104 -172 -211 -219
-364 l-28 -88 0 -420 c0 -371 2 -427 18 -484 46 -168 103 -267 222 -386 144
-145 301 -215 527 -235 287 -25 557 46 709 188 129 119 184 249 204 485 l7 77
-250 0 -249 0 -6 -67 c-13 -152 -64 -235 -165 -273 -48 -18 -73 -21 -157 -18
-83 3 -108 8 -150 30 -92 47 -154 132 -193 263 -23 76 -29 659 -9 778 45 256
189 373 417 338 86 -14 161 -51 197 -98 33 -43 63 -142 63 -209 l0 -54 252 0
251 0 -6 98 c-12 189 -68 323 -182 437 -116 117 -289 191 -498 214 -92 11
-218 12 -282 4z"/>
<path d="M6155 4048 c-2 -7 -151 -463 -330 -1013 -179 -550 -334 -1026 -345
-1057 l-19 -58 267 0 267 0 60 203 60 202 314 0 314 0 61 -202 61 -203 267 0
267 0 -39 118 c-22 64 -157 477 -300 917 -144 440 -284 869 -311 953 l-51 152
-269 0 c-207 0 -271 -3 -274 -12z m374 -1009 c50 -168 91 -309 91 -312 0 -4
-87 -7 -194 -7 l-193 0 96 320 c52 176 98 316 102 312 4 -4 48 -145 98 -313z"/>
<path d="M7540 2990 l0 -1070 710 0 710 0 0 195 0 195 -460 0 -460 0 0 875 0
875 -250 0 -250 0 0 -1070z"/>
<path d="M9220 2990 l0 -1070 710 0 710 0 0 195 0 195 -460 0 -460 0 0 875 0
875 -250 0 -250 0 0 -1070z"/>
<path d="M10900 2990 l0 -1070 700 0 700 0 0 195 0 195 -450 0 -450 0 0 260 0
260 375 0 375 0 0 195 0 195 -375 0 -375 0 0 225 0 225 450 0 450 0 0 195 0
195 -700 0 -700 0 0 -1070z"/>
<path d="M14580 2990 l0 -1070 250 0 250 0 0 1070 0 1070 -250 0 -250 0 0
-1070z"/>
<path d="M16005 4048 c-2 -7 -151 -463 -330 -1013 -179 -550 -334 -1026 -345
-1057 l-19 -58 267 0 267 0 60 203 60 202 314 0 314 0 61 -202 61 -203 267 0
267 0 -39 118 c-22 64 -157 477 -300 917 -144 440 -284 869 -311 953 l-51 152
-269 0 c-207 0 -271 -3 -274 -12z m374 -1009 c50 -168 91 -309 91 -312 0 -4
-87 -7 -194 -7 l-193 0 96 320 c52 176 98 316 102 312 4 -4 48 -145 98 -313z"/>
<path d="M17390 2990 l0 -1070 250 0 250 0 2 664 3 664 385 -664 385 -663 253
-1 252 0 0 1070 0 1070 -250 0 -250 0 -2 -667 -3 -667 -387 665 -387 664 -251
3 -250 2 0 -1070z"/>
<path d="M21420 2990 l0 -1070 700 0 700 0 0 195 0 195 -450 0 -450 0 0 260 0
260 375 0 375 0 0 195 0 195 -375 0 -375 0 0 225 0 225 450 0 450 0 0 195 0
195 -700 0 -700 0 0 -1070z"/>
</g>
</svg>
